<svg width="1920" height="1080" viewBox="0 0 1920 1080" fill="none" xmlns="http://www.w3.org/2000/svg">
<g clip-path="url(#clip0_40_3)">
<rect width="1920" height="1080" fill="#1E1E20"/>
<path d="M440.309 628.777L440.339 628.775L440.369 628.773C467.821 626.956 493.408 621.617 516.716 611.955C572.429 588.909 613.93 544.748 643.003 486.205L696.515 378.451L703.187 365.016L688.216 365.956L589.14 372.173L574.169 373.112L567.497 386.546L501.647 519.146C498.781 524.917 495.445 528.549 492.212 531.034L492.138 531.091L492.064 531.149C490.661 532.24 489.609 532.837 488.824 533.194C487.746 533.645 487.353 533.669 487.331 533.67C487.294 533.673 487.241 533.675 487.15 533.66C487.054 533.644 486.862 533.599 486.594 533.466L486.518 533.428L486.441 533.392C485.644 533.016 483.078 531.506 488.4 520.788L499.075 499.293L506.722 483.893L488.683 487.05L397.093 503.074L383.363 505.476L377.543 517.196L367.007 538.412C351.289 570.062 350.195 595.141 366.575 611.159C374.067 618.581 384.735 623.542 398.191 626.246C411.237 628.867 425.282 629.72 440.309 628.777Z" fill="#1E1E20" stroke="url(#paint0_linear_40_3)" stroke-width="30"/>
<path d="M432.384 608.197L432.41 608.195L432.436 608.194C459.814 606.381 484.502 601.093 506.279 592.065C557.146 571.026 596.853 530.253 625.931 471.7L679.443 363.946L690.999 340.677L665.069 342.304L565.992 348.521L557.349 349.063L553.497 356.819L487.647 489.418C484.639 495.475 480.52 500.484 475.183 504.588L475.148 504.615L475.112 504.643C473.565 505.847 472.089 506.826 470.686 507.614C470.886 507.187 471.099 506.744 471.328 506.283L482.003 484.788L495.191 458.231L465.983 463.341L374.392 479.365L366.918 480.673L363.543 487.469L353.007 508.685C338.233 538.434 334.054 568.076 355.003 588.581C364.05 597.532 376.218 602.843 390.01 605.614C403.404 608.306 417.551 609.128 432.384 608.197Z" fill="#1E1E20" stroke="#1E1E20" stroke-width="30"/>
<g filter="url(#filter0_f_40_3)">
<path d="M395.519 660.773C372.68 661.884 351.231 660.136 331.17 655.529C311.109 650.921 295.701 642.977 284.945 631.695C261.951 607.926 261.841 571.08 284.615 521.155L301.584 483.956L454.107 458.348L436.915 496.037C426.57 518.715 427.089 532.968 438.473 538.795C445.263 542.453 454.161 541.86 465.168 537.018C470.708 534.514 476.176 531.058 481.572 526.647C493.352 517.14 502.48 505.29 508.955 491.095L615.011 258.602L780.33 250.558L694.146 439.49C649.268 537.871 588.048 603.466 510.485 636.275C477.343 650.331 439.021 658.497 395.519 660.773Z" fill="url(#paint1_linear_40_3)"/>
</g>
<path d="M424.407 579.773L424.432 579.772L424.458 579.77C451.837 577.957 476.524 572.669 498.302 563.641C549.168 542.603 588.875 501.829 617.953 443.276L671.465 335.522L683.021 312.253L657.091 313.88L558.015 320.097L549.372 320.639L545.52 328.396L479.67 460.995C476.662 467.051 472.543 472.061 467.206 476.164L467.17 476.191L467.135 476.219C465.588 477.423 464.111 478.402 462.708 479.19C462.908 478.763 463.122 478.32 463.35 477.859L474.025 456.364L487.214 429.807L458.005 434.917L366.415 450.942L358.94 452.249L355.565 459.045L345.029 480.261C330.256 510.01 326.077 539.652 347.026 560.157C356.072 569.108 368.241 574.419 382.032 577.19C395.426 579.882 409.574 580.704 424.407 579.773Z" stroke="white" stroke-width="30"/>
<path d="M858.65 429.55H901V607H858.65V577.95C849.317 598.483 831.117 608.75 804.05 608.75C786.083 608.75 772.083 603.617 762.05 593.35C752.017 583.083 747 568.5 747 549.6V429.55H789V539.8C789 551 791.683 559.517 797.05 565.35C802.65 571.183 810.233 574.1 819.8 574.1C831.933 574.1 841.383 570.017 848.15 561.85C855.15 553.683 858.65 541.317 858.65 524.75V429.55ZM988.65 429.55V460C998.684 438.3 1016.88 427.45 1043.25 427.45C1060.98 427.45 1074.98 432.817 1085.25 443.55C1095.52 454.283 1100.65 469.45 1100.65 489.05V607H1058.65V497.8C1058.65 486.133 1055.85 477.383 1050.25 471.55C1044.65 465.483 1037.07 462.45 1027.5 462.45C1016.53 462.45 1007.32 466.767 999.85 475.4C992.384 483.8 988.65 495.933 988.65 511.8V607H946.65V429.55H988.65ZM1195.65 461.05V551.35C1195.65 558.817 1197.63 564.533 1201.6 568.5C1205.57 572.233 1211.05 574.1 1218.05 574.1C1226.92 574.1 1235.08 571.65 1242.55 566.75V602.8C1234.38 606.767 1223.88 608.75 1211.05 608.75C1172.78 608.75 1153.65 589.383 1153.65 550.65V461.05H1127.05V429.55H1153.65V386.85H1195.65V429.55H1239.75V461.05H1195.65ZM1383.92 503.75V498.5C1383.45 487.067 1380.3 477.967 1374.47 471.2C1368.87 464.2 1360.58 460.7 1349.62 460.7C1339.58 460.7 1330.83 464.433 1323.37 471.9C1316.13 479.133 1311.47 489.75 1309.37 503.75H1383.92ZM1412.62 560.8V597.2C1400.25 604.9 1382.4 608.75 1359.07 608.75C1330.83 608.75 1308.55 600.35 1292.22 583.55C1275.88 566.75 1267.72 545.05 1267.72 518.45C1267.72 490.217 1275.42 468.05 1290.82 451.95C1306.22 435.85 1325.47 427.8 1348.57 427.8C1371.67 427.8 1389.98 434.8 1403.52 448.8C1417.05 462.8 1423.82 483.217 1423.82 510.05C1423.82 516.583 1423 524.983 1421.37 535.25H1310.07C1313.1 548.083 1319.4 557.883 1328.97 564.65C1338.77 571.417 1350.9 574.8 1365.37 574.8C1384.03 574.8 1399.78 570.133 1412.62 560.8ZM1504.42 429.55V461.05C1512.59 439.117 1527.52 428.15 1549.22 428.15C1554.12 428.15 1558.09 428.5 1561.12 429.2V469.8C1555.76 467.467 1549.81 466.3 1543.27 466.3C1531.84 466.3 1522.51 470.967 1515.27 480.3C1508.04 489.633 1504.42 501.3 1504.42 515.3V607H1462.07L1462.42 429.55H1504.42Z" fill="url(#paint2_linear_40_3)"/>
</g>
<defs>
<filter id="filter0_f_40_3" x="-132.383" y="-149.441" width="1312.71" height="1210.54" filterUnits="userSpaceOnUse" color-interpolation-filters="sRGB">
<feFlood flood-opacity="0" result="BackgroundImageFix"/>
<feBlend mode="normal" in="SourceGraphic" in2="BackgroundImageFix" result="shape"/>
<feGaussianBlur stdDeviation="200" result="effect1_foregroundBlur_40_3"/>
</filter>
<linearGradient id="paint0_linear_40_3" x1="567.459" y1="386.549" x2="581.286" y2="606.915" gradientUnits="userSpaceOnUse">
<stop stop-color="#B866FF"/>
<stop offset="1" stop-color="#FC42D4"/>
</linearGradient>
<linearGradient id="paint1_linear_40_3" x1="487.675" y1="294.345" x2="578.909" y2="619.376" gradientUnits="userSpaceOnUse">
<stop stop-color="#B866FF"/>
<stop offset="1" stop-color="#FC42D4"/>
</linearGradient>
<linearGradient id="paint2_linear_40_3" x1="1447" y1="238" x2="1447" y2="726" gradientUnits="userSpaceOnUse">
<stop stop-color="#C48FF2"/>
<stop offset="1" stop-color="#FC42D4"/>
</linearGradient>
<clipPath id="clip0_40_3">
<rect width="1920" height="1080" fill="white"/>
</clipPath>
</defs>
</svg>
